<?xml version="1.0" standalone="no"?>
<!DOCTYPE svg PUBLIC "-//W3C//DTD SVG 20010904//EN"
 "http://www.w3.org/TR/2001/REC-SVG-20010904/DTD/svg10.dtd">
<svg version="1.0" xmlns="http://www.w3.org/2000/svg"
 width="1920.000000pt" height="1080.000000pt" viewBox="0 0 1920.000000 1080.000000"
 preserveAspectRatio="xMidYMid meet">

<g transform="translate(0.000000,1080.000000) scale(0.100000,-0.100000)"
fill="#000000" stroke="none">
<path d="M30 5935 c0 -42 38 -103 82 -132 l42 -28 436 0 436 0 42 28 c44 29
82 90 82 132 l0 25 -560 0 -560 0 0 -25z"/>
<path d="M1343 5924 c8 -46 40 -94 85 -125 l36 -24 415 -3 c280 -2 428 0 453
8 68 20 118 75 131 148 l7 32 -567 0 -566 0 6 -36z"/>
<path d="M2663 5920 c7 -53 49 -107 101 -131 38 -17 72 -19 434 -19 l392 0 0
-64 c0 -54 -4 -70 -24 -93 l-24 -28 -441 -3 -441 -3 0 -279 0 -280 90 0 90 0
2 188 3 187 135 3 135 2 190 -190 190 -190 145 0 145 0 -189 189 -189 189 130
4 c124 3 131 4 166 31 71 54 77 79 77 317 l0 210 -561 0 -562 0 6 -40z"/>
<path d="M4063 5862 l97 -97 0 -373 0 -372 90 0 90 0 0 282 0 283 140 -140
140 -140 0 -142 0 -143 95 0 95 0 0 138 0 137 140 140 140 140 0 -278 0 -277
95 0 95 0 0 373 0 372 90 90 c50 49 90 93 90 97 0 5 -62 8 -137 8 l-138 0
-235 -235 -235 -235 -235 235 -235 235 -140 0 -140 0 98 -98z"/>
<path d="M5660 5935 c0 -42 38 -103 82 -132 l42 -28 436 0 436 0 42 28 c44 29
82 90 82 132 l0 25 -560 0 -560 0 0 -25z"/>
<path d="M6970 5865 l0 -95 488 0 c452 0 490 2 527 19 48 22 79 54 100 103 30
74 77 68 -550 68 l-565 0 0 -95z"/>
<path d="M8290 5490 l0 -470 90 0 90 0 0 470 0 470 -90 0 -90 0 0 -470z"/>
<path d="M8665 5928 c15 -70 53 -116 117 -143 32 -13 99 -15 445 -15 375 0
411 2 448 19 48 22 79 54 100 103 30 74 77 68 -551 68 l-566 0 7 -32z"/>
<path d="M10068 5867 l92 -92 0 -378 0 -377 95 0 95 0 0 282 0 283 283 -283
282 -282 93 0 92 0 0 470 0 470 -95 0 -95 0 0 -327 0 -328 -328 328 -327 327
-140 0 -140 0 93 -93z"/>
<path d="M11850 5865 l0 -95 488 0 c452 0 490 2 527 19 48 22 79 54 100 103
30 74 77 68 -550 68 l-565 0 0 -95z"/>
<path d="M13170 5935 c0 -42 38 -103 82 -132 l42 -28 409 -3 409 -3 -4 -65
c-3 -54 -8 -69 -31 -92 l-27 -27 -440 -3 -440 -3 0 -279 0 -280 95 0 95 0 0
190 0 190 138 0 137 0 190 -190 190 -190 140 0 140 0 -183 183 c-100 100 -182
186 -182 190 0 4 52 7 115 7 126 0 150 7 197 57 44 46 48 71 48 294 l0 209
-560 0 -560 0 0 -25z"/>
<path d="M14480 5490 l0 -470 95 0 95 0 0 470 0 470 -95 0 -95 0 0 -470z"/>
<path d="M14863 5920 c7 -53 49 -107 101 -131 34 -16 66 -19 199 -19 l157 0 0
-375 0 -375 95 0 95 0 0 374 0 374 173 4 c164 3 175 4 209 27 45 31 77 79 85
125 l6 36 -563 0 -563 0 6 -40z"/>
<path d="M16170 5490 l0 -470 95 0 95 0 0 470 0 470 -95 0 -95 0 0 -470z"/>
<path d="M16550 5865 l0 -96 498 3 498 3 36 24 c45 31 77 79 85 125 l6 36
-562 0 -561 0 0 -95z"/>
<path d="M17863 5924 c8 -46 40 -94 85 -125 l36 -24 415 -3 c280 -2 428 0 453
8 68 20 118 75 131 148 l7 32 -567 0 -566 0 6 -36z"/>
<path d="M30 5300 l0 -280 95 0 95 0 0 190 0 190 400 0 c326 0 406 3 428 14
55 29 102 96 102 147 0 19 -13 19 -560 19 l-560 0 0 -280z"/>
<path d="M1340 5300 l0 -280 565 0 565 0 0 280 0 280 -95 0 -95 0 0 -185 0
-185 -375 0 -375 0 0 185 0 185 -95 0 -95 0 0 -280z"/>
<path d="M5660 5300 l0 -280 95 0 95 0 0 190 0 190 373 -2 372 -3 3 -187 2
-188 90 0 90 0 0 280 0 280 -560 0 -560 0 0 -280z"/>
<path d="M6970 5388 c0 -106 5 -210 11 -231 15 -53 72 -114 120 -127 25 -7
188 -10 458 -8 l419 3 39 31 c39 31 83 103 83 136 0 17 -24 18 -441 18 l-441
0 -29 29 -29 29 0 156 0 156 -95 0 -95 0 0 -192z"/>
<path d="M8660 5300 l0 -280 565 0 565 0 0 280 0 280 -95 0 -95 0 0 -185 0
-185 -375 0 -375 0 0 185 0 185 -95 0 -95 0 0 -280z"/>
<path d="M11850 5388 c0 -106 5 -210 11 -231 15 -53 72 -114 120 -127 25 -7
188 -10 458 -8 l419 3 39 31 c39 31 83 103 83 136 0 17 -24 18 -441 18 l-441
0 -29 29 -29 29 0 156 0 156 -95 0 -95 0 0 -192z"/>
<path d="M16550 5371 c0 -124 4 -221 11 -238 15 -40 48 -73 94 -94 37 -17 73
-19 454 -19 402 0 416 1 459 21 49 24 90 78 99 133 l6 36 -441 0 -441 0 -28
24 -28 24 -3 161 -3 161 -90 0 -89 0 0 -209z"/>
<path d="M17860 5300 l0 -280 95 0 95 0 0 190 0 190 373 -2 372 -3 3 -187 2
-188 95 0 95 0 0 280 0 280 -565 0 -565 0 0 -280z"/>
</g>
</svg>
