<svg xmlns="http://www.w3.org/2000/svg" xmlns:xlink="http://www.w3.org/1999/xlink" width="1920" zoomAndPan="magnify" viewBox="0 0 1440 809.999993" height="1080" preserveAspectRatio="xMidYMid meet" version="1.0"><defs><g/></defs><g fill="#000000" fill-opacity="1"><g transform="translate(383.321544, 339.009531)"><g><path d="M 0 0 L 0 -20.125 L 40.25 -20.125 C 40.25 -18.238281 39.582031 -16.648438 38.25 -15.359375 C 36.925781 -14.066406 35.351562 -13.421875 33.53125 -13.421875 L 6.703125 -13.421875 L 6.703125 0 Z M 6.703125 -26.828125 C 4.816406 -26.828125 3.226562 -27.472656 1.9375 -28.765625 C 0.644531 -30.097656 0 -31.6875 0 -33.53125 L 40.25 -33.53125 C 40.25 -31.644531 39.582031 -30.054688 38.25 -28.765625 C 36.925781 -27.472656 35.351562 -26.828125 33.53125 -26.828125 Z M 6.703125 -26.828125 "/></g></g><g transform="translate(430.27482, 339.009531)"><g><path d="M 0 0 L 0 -20.125 L 6.703125 -20.125 L 6.703125 -6.703125 L 33.53125 -6.703125 L 33.53125 -20.125 L 40.25 -20.125 L 40.25 0 Z M 6.703125 -26.828125 C 4.816406 -26.828125 3.226562 -27.472656 1.9375 -28.765625 C 0.644531 -30.097656 0 -31.6875 0 -33.53125 L 40.25 -33.53125 C 40.25 -31.644531 39.582031 -30.054688 38.25 -28.765625 C 36.925781 -27.472656 35.351562 -26.828125 33.53125 -26.828125 Z M 6.703125 -26.828125 "/></g></g><g transform="translate(477.228095, 339.009531)"><g><path d="M 0 0 L 0 -20.125 L 30.1875 -20.125 C 31.09375 -20.125 31.878906 -20.4375 32.546875 -21.0625 C 33.203125 -21.726562 33.53125 -22.53125 33.53125 -23.46875 L 33.53125 -26.828125 L 6.703125 -26.828125 C 4.816406 -26.828125 3.226562 -27.472656 1.9375 -28.765625 C 0.644531 -30.097656 0 -31.6875 0 -33.53125 L 40.25 -33.53125 L 40.25 -20.125 C 40.25 -18.238281 39.582031 -16.648438 38.25 -15.359375 C 36.925781 -14.066406 35.351562 -13.421875 33.53125 -13.421875 L 26.828125 -13.421875 L 40.25 0 L 30.1875 0 L 16.765625 -13.421875 L 6.703125 -13.421875 L 6.703125 0 Z M 0 0 "/></g></g><g transform="translate(524.181371, 339.009531)"><g><path d="M 6.703125 0 L 6.703125 -26.828125 L 0 -33.53125 L 10.0625 -33.53125 L 26.828125 -16.765625 L 43.59375 -33.53125 L 53.65625 -33.53125 L 46.953125 -26.828125 L 46.953125 0 L 40.25 0 L 40.25 -20.125 L 30.1875 -10.0625 L 30.1875 0 L 23.46875 0 L 23.46875 -10.0625 L 13.421875 -20.125 L 13.421875 0 Z M 6.703125 0 "/></g></g><g transform="translate(584.549869, 339.009531)"><g><path d="M 0 0 L 0 -20.125 L 40.25 -20.125 L 40.25 0 L 33.53125 0 L 33.53125 -13.421875 L 6.703125 -13.421875 L 6.703125 0 Z M 6.703125 -26.828125 C 4.816406 -26.828125 3.226562 -27.472656 1.9375 -28.765625 C 0.644531 -30.097656 0 -31.6875 0 -33.53125 L 40.25 -33.53125 C 40.25 -31.644531 39.582031 -30.054688 38.25 -28.765625 C 36.925781 -27.472656 35.351562 -26.828125 33.53125 -26.828125 Z M 6.703125 -26.828125 "/></g></g><g transform="translate(631.503145, 339.009531)"><g><path d="M 6.703125 0 C 4.816406 0 3.226562 -0.644531 1.9375 -1.9375 C 0.644531 -3.269531 0 -4.859375 0 -6.703125 L 0 -20.125 L 6.703125 -20.125 L 6.703125 -10.0625 C 6.703125 -9.113281 7.019531 -8.3125 7.65625 -7.65625 C 8.3125 -7.019531 9.113281 -6.703125 10.0625 -6.703125 L 40.25 -6.703125 C 40.25 -4.816406 39.582031 -3.226562 38.25 -1.9375 C 36.925781 -0.644531 35.351562 0 33.53125 0 Z M 0 -26.828125 L 0 -33.53125 L 40.25 -33.53125 C 40.25 -31.644531 39.582031 -30.054688 38.25 -28.765625 C 36.925781 -27.472656 35.351562 -26.828125 33.53125 -26.828125 Z M 0 -26.828125 "/></g></g><g transform="translate(678.456421, 339.009531)"><g><path d="M 0 0 L 0 -33.53125 L 6.703125 -33.53125 L 6.703125 0 Z M 0 0 "/></g></g><g transform="translate(691.871642, 339.009531)"><g><path d="M 0 0 L 0 -20.125 L 6.703125 -20.125 L 6.703125 -6.703125 L 33.53125 -6.703125 L 33.53125 -20.125 L 40.25 -20.125 L 40.25 0 Z M 6.703125 -26.828125 C 4.816406 -26.828125 3.226562 -27.472656 1.9375 -28.765625 C 0.644531 -30.097656 0 -31.6875 0 -33.53125 L 40.25 -33.53125 C 40.25 -31.644531 39.582031 -30.054688 38.25 -28.765625 C 36.925781 -27.472656 35.351562 -26.828125 33.53125 -26.828125 Z M 6.703125 -26.828125 "/></g></g><g transform="translate(738.824918, 339.009531)"><g><path d="M 6.703125 0 L 6.703125 -26.828125 L 0 -33.53125 L 10.0625 -33.53125 L 33.53125 -10.0625 L 33.53125 -33.53125 L 40.25 -33.53125 L 40.25 0 L 33.53125 0 L 13.421875 -20.125 L 13.421875 0 Z M 6.703125 0 "/></g></g><g transform="translate(785.778194, 339.009531)"><g/></g><g transform="translate(805.901027, 339.009531)"><g><path d="M 6.703125 0 C 4.816406 0 3.226562 -0.644531 1.9375 -1.9375 C 0.644531 -3.269531 0 -4.859375 0 -6.703125 L 0 -20.125 L 6.703125 -20.125 L 6.703125 -10.0625 C 6.703125 -9.113281 7.019531 -8.3125 7.65625 -7.65625 C 8.3125 -7.019531 9.113281 -6.703125 10.0625 -6.703125 L 40.25 -6.703125 C 40.25 -4.816406 39.582031 -3.226562 38.25 -1.9375 C 36.925781 -0.644531 35.351562 0 33.53125 0 Z M 0 -26.828125 L 0 -33.53125 L 40.25 -33.53125 C 40.25 -31.644531 39.582031 -30.054688 38.25 -28.765625 C 36.925781 -27.472656 35.351562 -26.828125 33.53125 -26.828125 Z M 0 -26.828125 "/></g></g><g transform="translate(852.854302, 339.009531)"><g><path d="M 0 0 L 0 -20.125 L 30.1875 -20.125 C 31.09375 -20.125 31.878906 -20.4375 32.546875 -21.0625 C 33.203125 -21.726562 33.53125 -22.53125 33.53125 -23.46875 L 33.53125 -26.828125 L 6.703125 -26.828125 C 4.816406 -26.828125 3.226562 -27.472656 1.9375 -28.765625 C 0.644531 -30.097656 0 -31.6875 0 -33.53125 L 40.25 -33.53125 L 40.25 -20.125 C 40.25 -18.238281 39.582031 -16.648438 38.25 -15.359375 C 36.925781 -14.066406 35.351562 -13.421875 33.53125 -13.421875 L 26.828125 -13.421875 L 40.25 0 L 30.1875 0 L 16.765625 -13.421875 L 6.703125 -13.421875 L 6.703125 0 Z M 0 0 "/></g></g><g transform="translate(899.807578, 339.009531)"><g><path d="M 0 0 L 0 -33.53125 L 6.703125 -33.53125 L 6.703125 0 Z M 0 0 "/></g></g><g transform="translate(913.2228, 339.009531)"><g><path d="M 16.765625 0 L 16.765625 -26.828125 L 6.703125 -26.828125 C 4.816406 -26.828125 3.226562 -27.472656 1.9375 -28.765625 C 0.644531 -30.097656 0 -31.6875 0 -33.53125 L 40.25 -33.53125 C 40.25 -31.644531 39.582031 -30.054688 38.25 -28.765625 C 36.925781 -27.472656 35.351562 -26.828125 33.53125 -26.828125 L 23.46875 -26.828125 L 23.46875 0 Z M 16.765625 0 "/></g></g><g transform="translate(960.176076, 339.009531)"><g><path d="M 0 0 L 0 -33.53125 L 6.703125 -33.53125 L 6.703125 0 Z M 0 0 "/></g></g><g transform="translate(973.591298, 339.009531)"><g><path d="M 6.703125 0 C 4.816406 0 3.226562 -0.644531 1.9375 -1.9375 C 0.644531 -3.269531 0 -4.859375 0 -6.703125 L 0 -20.125 L 6.703125 -20.125 L 6.703125 -10.0625 C 6.703125 -9.113281 7.019531 -8.3125 7.65625 -7.65625 C 8.3125 -7.019531 9.113281 -6.703125 10.0625 -6.703125 L 40.25 -6.703125 C 40.25 -4.816406 39.582031 -3.226562 38.25 -1.9375 C 36.925781 -0.644531 35.351562 0 33.53125 0 Z M 0 -26.828125 L 0 -33.53125 L 40.25 -33.53125 C 40.25 -31.644531 39.582031 -30.054688 38.25 -28.765625 C 36.925781 -27.472656 35.351562 -26.828125 33.53125 -26.828125 Z M 0 -26.828125 "/></g></g><g transform="translate(1020.544573, 339.009531)"><g><path d="M 0 0 L 0 -20.125 L 40.25 -20.125 L 40.25 0 L 33.53125 0 L 33.53125 -13.421875 L 6.703125 -13.421875 L 6.703125 0 Z M 6.703125 -26.828125 C 4.816406 -26.828125 3.226562 -27.472656 1.9375 -28.765625 C 0.644531 -30.097656 0 -31.6875 0 -33.53125 L 40.25 -33.53125 C 40.25 -31.644531 39.582031 -30.054688 38.25 -28.765625 C 36.925781 -27.472656 35.351562 -26.828125 33.53125 -26.828125 Z M 6.703125 -26.828125 "/></g></g></g><g fill="#ffffff" fill-opacity="1"><g transform="translate(628.124975, 415.504393)"><g><path d="M 13.125 0 L 13.125 -21 L 5.25 -21 C 3.769531 -21 2.523438 -21.503906 1.515625 -22.515625 C 0.503906 -23.554688 0 -24.800781 0 -26.25 L 31.5 -26.25 C 31.5 -24.769531 30.976562 -23.523438 29.9375 -22.515625 C 28.90625 -21.503906 27.675781 -21 26.25 -21 L 18.375 -21 L 18.375 0 Z M 13.125 0 "/></g></g><g transform="translate(664.874973, 415.504393)"><g><path d="M 5.25 0 C 3.769531 0 2.523438 -0.503906 1.515625 -1.515625 C 0.503906 -2.554688 0 -3.800781 0 -5.25 L 31.5 -5.25 C 31.5 -3.769531 30.976562 -2.523438 29.9375 -1.515625 C 28.90625 -0.503906 27.675781 0 26.25 0 Z M 5.25 -10.5 C 3.769531 -10.5 2.523438 -11.003906 1.515625 -12.015625 C 0.503906 -13.054688 0 -14.300781 0 -15.75 L 31.5 -15.75 C 31.5 -14.269531 30.976562 -13.023438 29.9375 -12.015625 C 28.90625 -11.003906 27.675781 -10.5 26.25 -10.5 Z M 5.25 -21 C 3.769531 -21 2.523438 -21.503906 1.515625 -22.515625 C 0.503906 -23.554688 0 -24.800781 0 -26.25 L 31.5 -26.25 C 31.5 -24.769531 30.976562 -23.523438 29.9375 -22.515625 C 28.90625 -21.503906 27.675781 -21 26.25 -21 Z M 5.25 -21 "/></g></g><g transform="translate(701.624971, 415.504393)"><g><path d="M 0 0 C 0 -1.445312 0.503906 -2.675781 1.515625 -3.6875 C 2.554688 -4.726562 3.800781 -5.25 5.25 -5.25 L 26.25 -5.25 L 26.25 -10.5 L 0 -10.5 L 0 -26.25 L 31.5 -26.25 C 31.5 -24.769531 30.976562 -23.523438 29.9375 -22.515625 C 28.90625 -21.503906 27.675781 -21 26.25 -21 L 5.25 -21 L 5.25 -15.75 L 31.5 -15.75 L 31.5 0 Z M 0 0 "/></g></g><g transform="translate(738.374969, 415.504393)"><g><path d="M 0 0 L 0 -26.25 L 5.25 -26.25 L 5.25 -5.25 L 31.5 -5.25 C 31.5 -3.769531 30.976562 -2.523438 29.9375 -1.515625 C 28.90625 -0.503906 27.675781 0 26.25 0 Z M 0 0 "/></g></g><g transform="translate(775.124967, 415.504393)"><g><path d="M 0 0 L 0 -15.75 L 31.5 -15.75 L 31.5 0 L 26.25 0 L 26.25 -10.5 L 5.25 -10.5 L 5.25 0 Z M 5.25 -21 C 3.769531 -21 2.523438 -21.503906 1.515625 -22.515625 C 0.503906 -23.554688 0 -24.800781 0 -26.25 L 31.5 -26.25 C 31.5 -24.769531 30.976562 -23.523438 29.9375 -22.515625 C 28.90625 -21.503906 27.675781 -21 26.25 -21 Z M 5.25 -21 "/></g></g></g></svg>