<svg xmlns="http://www.w3.org/2000/svg" width="1920" height="1080" version="1.0" viewBox="0 0 1440 810"><path d="M383.322 339.01v-20.125h40.25c0 1.886-.668 3.476-2 4.765-1.325 1.293-2.899 1.938-4.72 1.938h-26.827v13.422Zm6.703-26.829c-1.887 0-3.477-.644-4.766-1.937-1.293-1.332-1.937-2.922-1.937-4.766h40.25c0 1.887-.668 3.477-2 4.766-1.325 1.293-2.899 1.937-4.72 1.937ZM430.275 339.01v-20.125h6.703v13.421h26.828v-13.421h6.719v20.125Zm6.703-26.829c-1.887 0-3.477-.644-4.766-1.937-1.293-1.332-1.937-2.922-1.937-4.766h40.25c0 1.887-.668 3.477-2 4.766-1.324 1.293-2.899 1.937-4.719 1.937ZM477.228 339.01v-20.125h30.188c.906 0 1.691-.313 2.359-.938a3.302 3.302 0 0 0 .984-2.406v-3.36h-26.828c-1.886 0-3.476-.644-4.765-1.937-1.293-1.332-1.938-2.922-1.938-4.766h40.25v13.407c0 1.886-.668 3.476-2 4.765-1.324 1.293-2.898 1.938-4.719 1.938h-6.703l13.422 13.422h-10.062l-13.422-13.422H483.93v13.422ZM530.884 339.01V312.18l-6.703-6.703h10.063l16.765 16.766 16.766-16.766h10.063l-6.704 6.703v26.829h-6.703v-20.125l-10.062 10.062v10.063h-6.719v-10.063l-10.047-10.062v20.125ZM584.55 339.01v-20.125h40.25v20.125h-6.719v-13.422h-26.828v13.422Zm6.703-26.829c-1.887 0-3.477-.644-4.766-1.937-1.293-1.332-1.937-2.922-1.937-4.766h40.25c0 1.887-.668 3.477-2 4.766-1.324 1.293-2.899 1.937-4.719 1.937ZM638.206 339.01c-1.886 0-3.476-.645-4.765-1.938-1.293-1.332-1.938-2.922-1.938-4.766v-13.421h6.703v10.062c0 .95.317 1.75.953 2.406.657.637 1.457.953 2.407.953h30.187c0 1.887-.668 3.477-2 4.766-1.324 1.293-2.898 1.938-4.719 1.938Zm-6.703-26.829v-6.703h40.25c0 1.887-.668 3.477-2 4.766-1.324 1.293-2.898 1.937-4.719 1.937ZM678.456 339.01v-33.532h6.704v33.532ZM691.872 339.01v-20.125h6.703v13.421h26.828v-13.421h6.719v20.125Zm6.703-26.829c-1.887 0-3.477-.644-4.766-1.937-1.293-1.332-1.937-2.922-1.937-4.766h40.25c0 1.887-.668 3.477-2 4.766-1.325 1.293-2.899 1.937-4.72 1.937ZM745.528 339.01V312.18l-6.703-6.703h10.062l23.47 23.469v-23.469h6.718v33.532h-6.719l-20.11-20.125v20.125ZM812.604 339.01c-1.887 0-3.476-.645-4.765-1.938-1.293-1.332-1.938-2.922-1.938-4.766v-13.421h6.703v10.062c0 .95.317 1.75.953 2.406.657.637 1.457.953 2.407.953h30.187c0 1.887-.668 3.477-2 4.766-1.324 1.293-2.898 1.938-4.719 1.938Zm-6.703-26.829v-6.703h40.25c0 1.887-.668 3.477-2 4.766-1.324 1.293-2.898 1.937-4.719 1.937ZM852.854 339.01v-20.125h30.188c.906 0 1.691-.313 2.36-.938a3.302 3.302 0 0 0 .984-2.406v-3.36h-26.829c-1.886 0-3.476-.644-4.765-1.937-1.293-1.332-1.938-2.922-1.938-4.766h40.25v13.407c0 1.886-.668 3.476-2 4.765-1.324 1.293-2.898 1.938-4.718 1.938h-6.704l13.422 13.422h-10.062l-13.422-13.422h-10.063v13.422ZM899.808 339.01v-33.532h6.703v33.532ZM929.988 339.01V312.18h-10.062c-1.887 0-3.477-.644-4.766-1.937-1.293-1.332-1.937-2.922-1.937-4.766h40.25c0 1.887-.668 3.477-2 4.766-1.324 1.293-2.899 1.937-4.719 1.937h-10.062v26.829ZM960.176 339.01v-33.532h6.703v33.532ZM980.294 339.01c-1.886 0-3.476-.645-4.765-1.938-1.293-1.332-1.938-2.922-1.938-4.766v-13.421h6.703v10.062c0 .95.317 1.75.954 2.406.656.637 1.457.953 2.406.953h30.187c0 1.887-.668 3.477-2 4.766-1.324 1.293-2.898 1.938-4.718 1.938Zm-6.703-26.829v-6.703h40.25c0 1.887-.668 3.477-2 4.766-1.324 1.293-2.898 1.937-4.718 1.937ZM1020.545 339.01v-20.125h40.25v20.125h-6.72v-13.422h-26.827v13.422Zm6.703-26.829c-1.887 0-3.477-.644-4.766-1.937-1.293-1.332-1.937-2.922-1.937-4.766h40.25c0 1.887-.668 3.477-2 4.766-1.325 1.293-2.899 1.937-4.72 1.937Zm0 0"/><g fill="#fff"><path d="M641.25 415.504v-21h-7.875c-1.48 0-2.727-.504-3.734-1.515-1.012-1.04-1.516-2.285-1.516-3.735h31.5c0 1.48-.523 2.727-1.563 3.735-1.03 1.011-2.261 1.515-3.687 1.515H646.5v21ZM670.125 415.504c-1.48 0-2.727-.504-3.734-1.515-1.012-1.04-1.516-2.285-1.516-3.735h31.5c0 1.48-.523 2.727-1.563 3.735-1.03 1.011-2.261 1.515-3.687 1.515Zm0-10.5c-1.48 0-2.727-.504-3.734-1.515-1.012-1.04-1.516-2.285-1.516-3.735h31.5c0 1.48-.523 2.727-1.563 3.735-1.03 1.011-2.261 1.515-3.687 1.515Zm0-10.5c-1.48 0-2.727-.504-3.734-1.515-1.012-1.04-1.516-2.285-1.516-3.735h31.5c0 1.48-.523 2.727-1.563 3.735-1.03 1.011-2.261 1.515-3.687 1.515ZM701.625 415.504c0-1.445.504-2.675 1.516-3.687 1.039-1.04 2.285-1.563 3.734-1.563h21v-5.25h-26.25v-15.75h31.5c0 1.48-.523 2.727-1.563 3.735-1.03 1.011-2.261 1.515-3.687 1.515h-21v5.25h26.25v15.75ZM738.375 415.504v-26.25h5.25v21h26.25c0 1.48-.523 2.727-1.563 3.735-1.03 1.011-2.261 1.515-3.687 1.515ZM775.125 415.504v-15.75h31.5v15.75h-5.25v-10.5h-21v10.5Zm5.25-21c-1.48 0-2.727-.504-3.734-1.515-1.012-1.04-1.516-2.285-1.516-3.735h31.5c0 1.48-.523 2.727-1.563 3.735-1.03 1.011-2.261 1.515-3.687 1.515Zm0 0"/></g></svg>