<svg xmlns="http://www.w3.org/2000/svg" xmlns:xlink="http://www.w3.org/1999/xlink" width="1920" zoomAndPan="magnify" viewBox="0 0 1440 809.999993" height="1080" preserveAspectRatio="xMidYMid meet" version="1.0"><defs><g/></defs><rect x="-144" width="1728" fill="#ffffff" y="-80.999999" height="971.999992" fill-opacity="1"/><rect x="-144" width="1728" fill="#ffffff" y="-80.999999" height="971.999992" fill-opacity="1"/><rect x="-144" width="1728" fill="#ffffff" y="-80.999999" height="971.999992" fill-opacity="1"/><g fill="#000000" fill-opacity="1"><g transform="translate(452.248519, 415.504393)"><g><path d="M 0 0 L 0 -15.75 L 31.5 -15.75 C 31.5 -14.269531 30.976562 -13.023438 29.9375 -12.015625 C 28.90625 -11.003906 27.675781 -10.5 26.25 -10.5 L 5.25 -10.5 L 5.25 0 Z M 5.25 -21 C 3.769531 -21 2.523438 -21.503906 1.515625 -22.515625 C 0.503906 -23.554688 0 -24.800781 0 -26.25 L 31.5 -26.25 C 31.5 -24.769531 30.976562 -23.523438 29.9375 -22.515625 C 28.90625 -21.503906 27.675781 -21 26.25 -21 Z M 5.25 -21 "/></g></g><g transform="translate(488.998518, 415.504393)"><g><path d="M 0 0 L 0 -15.75 L 5.25 -15.75 L 5.25 -5.25 L 26.25 -5.25 L 26.25 -15.75 L 31.5 -15.75 L 31.5 0 Z M 5.25 -21 C 3.769531 -21 2.523438 -21.503906 1.515625 -22.515625 C 0.503906 -23.554688 0 -24.800781 0 -26.25 L 31.5 -26.25 C 31.5 -24.769531 30.976562 -23.523438 29.9375 -22.515625 C 28.90625 -21.503906 27.675781 -21 26.25 -21 Z M 5.25 -21 "/></g></g><g transform="translate(525.748516, 415.504393)"><g><path d="M 0 0 L 0 -15.75 L 23.625 -15.75 C 24.332031 -15.75 24.945312 -15.992188 25.46875 -16.484375 C 25.988281 -17.003906 26.25 -17.632812 26.25 -18.375 L 26.25 -21 L 5.25 -21 C 3.769531 -21 2.523438 -21.503906 1.515625 -22.515625 C 0.503906 -23.554688 0 -24.800781 0 -26.25 L 31.5 -26.25 L 31.5 -15.75 C 31.5 -14.269531 30.976562 -13.023438 29.9375 -12.015625 C 28.90625 -11.003906 27.675781 -10.5 26.25 -10.5 L 21 -10.5 L 31.5 0 L 23.625 0 L 13.125 -10.5 L 5.25 -10.5 L 5.25 0 Z M 0 0 "/></g></g><g transform="translate(562.498514, 415.504393)"><g><path d="M 5.25 0 L 5.25 -21 L 0 -26.25 L 7.875 -26.25 L 21 -13.125 L 34.125 -26.25 L 42 -26.25 L 36.75 -21 L 36.75 0 L 31.5 0 L 31.5 -15.75 L 23.625 -7.875 L 23.625 0 L 18.375 0 L 18.375 -7.875 L 10.5 -15.75 L 10.5 0 Z M 5.25 0 "/></g></g><g transform="translate(609.748512, 415.504393)"><g><path d="M 0 0 L 0 -15.75 L 31.5 -15.75 L 31.5 0 L 26.25 0 L 26.25 -10.5 L 5.25 -10.5 L 5.25 0 Z M 5.25 -21 C 3.769531 -21 2.523438 -21.503906 1.515625 -22.515625 C 0.503906 -23.554688 0 -24.800781 0 -26.25 L 31.5 -26.25 C 31.5 -24.769531 30.976562 -23.523438 29.9375 -22.515625 C 28.90625 -21.503906 27.675781 -21 26.25 -21 Z M 5.25 -21 "/></g></g><g transform="translate(646.49851, 415.504393)"><g><path d="M 5.25 0 C 3.769531 0 2.523438 -0.503906 1.515625 -1.515625 C 0.503906 -2.554688 0 -3.800781 0 -5.25 L 0 -15.75 L 5.25 -15.75 L 5.25 -7.875 C 5.25 -7.132812 5.492188 -6.503906 5.984375 -5.984375 C 6.503906 -5.492188 7.132812 -5.25 7.875 -5.25 L 31.5 -5.25 C 31.5 -3.769531 30.976562 -2.523438 29.9375 -1.515625 C 28.90625 -0.503906 27.675781 0 26.25 0 Z M 0 -21 L 0 -26.25 L 31.5 -26.25 C 31.5 -24.769531 30.976562 -23.523438 29.9375 -22.515625 C 28.90625 -21.503906 27.675781 -21 26.25 -21 Z M 0 -21 "/></g></g><g transform="translate(683.248508, 415.504393)"><g><path d="M 0 0 L 0 -26.25 L 5.25 -26.25 L 5.25 0 Z M 0 0 "/></g></g><g transform="translate(693.748507, 415.504393)"><g><path d="M 0 0 L 0 -15.75 L 5.25 -15.75 L 5.25 -5.25 L 26.25 -5.25 L 26.25 -15.75 L 31.5 -15.75 L 31.5 0 Z M 5.25 -21 C 3.769531 -21 2.523438 -21.503906 1.515625 -22.515625 C 0.503906 -23.554688 0 -24.800781 0 -26.25 L 31.5 -26.25 C 31.5 -24.769531 30.976562 -23.523438 29.9375 -22.515625 C 28.90625 -21.503906 27.675781 -21 26.25 -21 Z M 5.25 -21 "/></g></g><g transform="translate(730.498505, 415.504393)"><g><path d="M 5.25 0 L 5.25 -21 L 0 -26.25 L 7.875 -26.25 L 26.25 -7.875 L 26.25 -26.25 L 31.5 -26.25 L 31.5 0 L 26.25 0 L 10.5 -15.75 L 10.5 0 Z M 5.25 0 "/></g></g><g transform="translate(767.248504, 415.504393)"><g/></g><g transform="translate(782.998503, 415.504393)"><g><path d="M 5.25 0 C 3.769531 0 2.523438 -0.503906 1.515625 -1.515625 C 0.503906 -2.554688 0 -3.800781 0 -5.25 L 0 -15.75 L 5.25 -15.75 L 5.25 -7.875 C 5.25 -7.132812 5.492188 -6.503906 5.984375 -5.984375 C 6.503906 -5.492188 7.132812 -5.25 7.875 -5.25 L 31.5 -5.25 C 31.5 -3.769531 30.976562 -2.523438 29.9375 -1.515625 C 28.90625 -0.503906 27.675781 0 26.25 0 Z M 0 -21 L 0 -26.25 L 31.5 -26.25 C 31.5 -24.769531 30.976562 -23.523438 29.9375 -22.515625 C 28.90625 -21.503906 27.675781 -21 26.25 -21 Z M 0 -21 "/></g></g><g transform="translate(819.748501, 415.504393)"><g><path d="M 0 0 L 0 -15.75 L 23.625 -15.75 C 24.332031 -15.75 24.945312 -15.992188 25.46875 -16.484375 C 25.988281 -17.003906 26.25 -17.632812 26.25 -18.375 L 26.25 -21 L 5.25 -21 C 3.769531 -21 2.523438 -21.503906 1.515625 -22.515625 C 0.503906 -23.554688 0 -24.800781 0 -26.25 L 31.5 -26.25 L 31.5 -15.75 C 31.5 -14.269531 30.976562 -13.023438 29.9375 -12.015625 C 28.90625 -11.003906 27.675781 -10.5 26.25 -10.5 L 21 -10.5 L 31.5 0 L 23.625 0 L 13.125 -10.5 L 5.25 -10.5 L 5.25 0 Z M 0 0 "/></g></g><g transform="translate(856.498499, 415.504393)"><g><path d="M 0 0 L 0 -26.25 L 5.25 -26.25 L 5.25 0 Z M 0 0 "/></g></g><g transform="translate(866.998499, 415.504393)"><g><path d="M 13.125 0 L 13.125 -21 L 5.25 -21 C 3.769531 -21 2.523438 -21.503906 1.515625 -22.515625 C 0.503906 -23.554688 0 -24.800781 0 -26.25 L 31.5 -26.25 C 31.5 -24.769531 30.976562 -23.523438 29.9375 -22.515625 C 28.90625 -21.503906 27.675781 -21 26.25 -21 L 18.375 -21 L 18.375 0 Z M 13.125 0 "/></g></g><g transform="translate(903.748497, 415.504393)"><g><path d="M 0 0 L 0 -26.25 L 5.25 -26.25 L 5.25 0 Z M 0 0 "/></g></g><g transform="translate(914.248496, 415.504393)"><g><path d="M 5.25 0 C 3.769531 0 2.523438 -0.503906 1.515625 -1.515625 C 0.503906 -2.554688 0 -3.800781 0 -5.25 L 0 -15.75 L 5.25 -15.75 L 5.25 -7.875 C 5.25 -7.132812 5.492188 -6.503906 5.984375 -5.984375 C 6.503906 -5.492188 7.132812 -5.25 7.875 -5.25 L 31.5 -5.25 C 31.5 -3.769531 30.976562 -2.523438 29.9375 -1.515625 C 28.90625 -0.503906 27.675781 0 26.25 0 Z M 0 -21 L 0 -26.25 L 31.5 -26.25 C 31.5 -24.769531 30.976562 -23.523438 29.9375 -22.515625 C 28.90625 -21.503906 27.675781 -21 26.25 -21 Z M 0 -21 "/></g></g><g transform="translate(950.998494, 415.504393)"><g><path d="M 0 0 L 0 -15.75 L 31.5 -15.75 L 31.5 0 L 26.25 0 L 26.25 -10.5 L 5.25 -10.5 L 5.25 0 Z M 5.25 -21 C 3.769531 -21 2.523438 -21.503906 1.515625 -22.515625 C 0.503906 -23.554688 0 -24.800781 0 -26.25 L 31.5 -26.25 C 31.5 -24.769531 30.976562 -23.523438 29.9375 -22.515625 C 28.90625 -21.503906 27.675781 -21 26.25 -21 Z M 5.25 -21 "/></g></g></g></svg>